<!--
category: Design
tags: [advert, advertisement, marketing, commercial]
version: "1.1"
unicode: "ec32"
-->
<svg
  xmlns="http://www.w3.org/2000/svg"
  width="24"
  height="24"
  viewBox="0 0 24 24"
  fill="none"
  stroke="currentColor"
  stroke-width="2"
  stroke-linecap="round"
  stroke-linejoin="round"
>
<path
     d="m 8.5926919,1.9997987 c -1.739149,0 -1.7392482,2.608121 -1.7392482,6.086418 1e-7,2.2798383 -0.4342868,4.7825573 0.4352873,6.5217053 0.536125,1.07225 1.4343337,1.617473 2.1840395,1.893213 0.6861975,0.252384 0.9427465,-0.205037 0.6367735,-0.870573 -0.3244301,-0.705685 -0.6462776,-1.680426 -0.6462776,-2.761889 0,-1.357193 0.4343875,-3.9118809 1.3039626,-3.9118819 0.622173,-1e-6 1.738346,0.434386 2.607921,1.3039609 0.869575,0.869574 1.30396,1.738847 1.30396,3.043208 0,0.72811 -0.286524,1.439249 -0.62727,2.026272 -0.507143,0.873695 -0.254144,1.440656 0.657684,1.015037 1.203645,-0.561831 2.579408,-1.846041 2.579408,-4.780556 0,-4.3478713 -6.95709,-9.5649143 -8.6962401,-9.5649143 z M 12.071188,18.086418 c -2.608723,0 -3.4784961,0.870175 -3.4784961,2.174535 0,0.869576 0.4349867,1.739248 3.4784961,1.739248 3.04351,0 3.478497,-0.869672 3.478497,-1.739248 0,-1.30436 -0.869775,-2.174535 -3.478497,-2.174535 z" />
</svg>
